# xmcd
#
# Track frame offsets:
#	150
#	11174
#	24528
#	36178
#	47899
#	56478
#	68782
#	77840
#	88494
#	102785
#	112170
#	120880
#	130260
#	139519
#	149016
#	162059
#	171621
#	184293
#	196681
#	208123
#	217110
#	228099
#
# Disc length: 3156
#
# Revision: 1
# Processed by: cddbd v1.5.1PL0 Copyright (c) Steve Scherf et al.
# Submitted via: audiograbber 1.80
# Normalized: r0:DSETVAR1
#
DISCID=450c5216
DTITLE=Various Artist - Country Songs
DYEAR=1900
DGENRE=
TTITLE0=Waylon Jennings - Silver Ribbons
TTITLE1=Johny Cash - Folsom prison Blues
TTITLE2=Frankie Laine - Mule Train
TTITLE3=Merle Travis - John Bolin
TTITLE4=Waylon Jennings - Nashville Rebel
TTITLE5=Frankie Laine - The Rock of Gibraltar
TTITLE6=Merle Travis - Muskrat
TTITLE7=Johny Cash - Get Rhythm
TTITLE8=Frankie Laine - Riders In The Sky
TTITLE9=Merle Travis - John Henry
TTITLE10=Waylon Jennings - Nashville Burn
TTITLE11=Johny Cash - Blue Train
TTITLE12=Merle Travis - Sixteen Tons
TTITLE13=Waylon Jennings - Norwegian Wood
TTITLE14=Frankie Laine - Rain, Rain, Rain
TTITLE15=Merle Travis - Possom Up A Simmon Tree
TTITLE16=Frankie Laine - High Noon
TTITLE17=Johny Cash - Ring Of Fire
TTITLE18=Frankie Laine - Love Is A Golden Ring
TTITLE19=Merle Travis - Over By Number Nine
TTITLE20=Johny Cash - Bonanza!
TTITLE21=Merle Travis - Lost John
EXTD=
EXTT0=
EXTT1=
EXTT2=
EXTT3=
EXTT4=
EXTT5=
EXTT6=
EXTT7=
EXTT8=
EXTT9=
EXTT10=
EXTT11=
EXTT12=
EXTT13=
EXTT14=
EXTT15=
EXTT16=
EXTT17=
EXTT18=
EXTT19=
EXTT20=
EXTT21=
PLAYORDER=
